PathFileType	4	(X/Y/Z)	RBDS026\RBDS026runT45.trc
DataRate	CameraRate	NumFrames	NumMarkers	Units	OrigDataRate	OrigDataStartFrame	OrigNumFrames
150.000000	150.000000	4	33	mm	150.000000	562	4500
Frame#	Time	L.ASIS			L.Heel.Bottom			L.Heel.Lateral			L.Heel.Top			L.Iliac.Crest			L.MT1			L.MT5			L.PSIS			L.Shank.Bottom.Lateral			L.Shank.Bottom.Medial			L.Shank.Top.Lateral			L.Shank.Top.Medial			L.Thigh.Bottom.Lateral			L.Thigh.Bottom.Medial			L.Thigh.Top.Lateral			L.Thigh.Top.Medial			R.ASIS			R.ASY			R.Heel.Bottom			R.Heel.Lateral			R.Heel.Top			R.Iliac.Crest			R.MT1			R.MT5			R.PSIS			R.Shank.Bottom.Lateral			R.Shank.Bottom.Medial			R.Shank.Top.Lateral			R.Shank.Top.Medial			R.Thigh.Bottom.Lateral			R.Thigh.Bottom.Medial			R.Thigh.Top.Lateral			R.Thigh.Top.Medial			
		X1	Y1	Z1	X2	Y2	Z2	X3	Y3	Z3	X4	Y4	Z4	X5	Y5	Z5	X6	Y6	Z6	X7	Y7	Z7	X8	Y8	Z8	X9	Y9	Z9	X10	Y10	Z10	X11	Y11	Z11	X12	Y12	Z12	X13	Y13	Z13	X14	Y14	Z14	X15	Y15	Z15	X16	Y16	Z16	X17	Y17	Z17	X18	Y18	Z18	X19	Y19	Z19	X20	Y20	Z20	X21	Y21	Z21	X22	Y22	Z22	X23	Y23	Z23	X24	Y24	Z24	X25	Y25	Z25	X26	Y26	Z26	X27	Y27	Z27	X28	Y28	Z28	X29	Y29	Z29	X30	Y30	Z30	X31	Y31	Z31	X32	Y32	Z32	X33	Y33	Z33	

563	3.746666666666667	2082.625081687723	993.5081275339029	869.4487414362645	1493.346542171883	137.8893440630345	970.0699508472495	1524.060057780151	134.4951530243927	917.0354439780547	1522.760212289688	174.0138012185779	962.3332512400857	2025.015260083957	1075.955952115759	827.2326054604035	1691.512053879543	42.93958418926009	978.5085425424649	1634.427654565846	48.12329038771903	875.8782594760399	1921.521207122484	1071.332064768667	945.9820316988468	1630.101741535552	219.6561580601083	883.1161405751708	1598.641862508892	248.3105509443131	910.4109579251343	1670.631602762924	283.6661900002841	854.5217259780688	1638.99047972906	316.8726449975405	880.6829222089317	1872.505200692131	628.5787552976744	820.2606404933815	1818.54846468304	646.4621662370024	865.397462660194	1894.198024486294	735.3895394282105	805.9823935037022	1845.176476360064	751.4987101738703	853.1708141048124	2086.534372587665	1014.433395520507	1111.180335227509	1869.470402769776	328.5238521644756	1063.460461649827	1765.687292375826	483.7559988087741	1022.199242742512	1793.582317022501	468.0772873736833	1071.917783066539	1811.788449502571	487.5364938444206	1021.94875406308	2016.762703432151	1086.701618413418	1152.543319906484	1839.545843513833	270.7282316589078	1024.105471419796	1822.305169157258	313.9296291208184	1125.499799747234	1921.080274599877	1069.876125709155	1045.065927977408	1917.401084681192	457.2949420632212	1095.112543388998	1899.909317616654	500.2889115545665	1064.91441343617	1985.346976351199	499.4122952230175	1111.747600852828	1967.610853592877	539.8699673673975	1081.453678634682	2215.509891092516	664.2428462502547	1142.725914459395	2158.769031343711	628.9115775564552	1116.799624597091	2151.662365572946	751.2907425851765	1166.44404913294	2096.72543640706	715.4085948468246	1146.694290383928	
564	3.753333333333333	2084.966783351699	996.5699201145453	869.4642206003128	1476.606806692451	155.2786515305996	969.5462745135283	1506.301646545656	148.8783593273655	916.3659938859364	1508.587930736594	188.6034664455308	960.9921639184784	2031.513137233977	1080.996062932868	828.1128380124019	1665.11378478231	43.732424104257	977.4689619874466	1607.928034402565	52.32158635657443	875.4863230491753	1924.969836392498	1076.851681433835	946.0195981024482	1611.866389544748	230.8375616692146	881.5555519319246	1581.515498987219	258.7429501729936	910.6608463809506	1652.054310191054	295.4791393984996	853.8266244047824	1621.412643364367	327.9900503508306	881.9986359886202	1860.877503476933	638.5066491392879	821.4812112214843	1808.579944990335	658.6383185529215	867.7364320806778	1887.075475270977	744.3496945016572	807.2909137044035	1839.834165607282	762.3593796449404	855.6110839509554	2090.632297431165	1021.73796129816	1109.733285794524	1895.324112088899	313.2878649952099	1064.537790088805	1779.591280288731	459.606243728212	1022.501100682029	1808.594389811919	446.2293704679163	1071.990242082647	1825.209039792051	467.0686307437855	1022.017765381799	2021.560866154378	1095.159127756816	1152.869005710065	1869.912062673735	253.1510530607628	1025.400239761371	1849.42423862525	295.462655867561	1126.549031371989	1924.697048357747	1076.613590383519	1045.411974114366	1933.135554349154	445.4081184225596	1095.001840063118	1912.806620231941	486.6349412289765	1064.130057359456	1998.013084458175	492.2827944673951	1111.043036864973	1977.619707228107	530.9984219886403	1080.150275331408	2223.01436957897	674.7912557666424	1141.166969752925	2166.04491568263	638.4939562768876	1116.860546925715	2158.466713529188	761.0551281222711	1165.887721687476	2103.647761941535	724.5037841119592	1147.250353773551	
565	3.76	2087.24818449309	999.6727611104465	869.459901500479	1462.038286774373	173.3729722262574	969.8276842276557	1490.04308484378	164.1919952160495	916.3382010704489	1496.423769274546	203.6694284992787	960.2068507936839	2037.747326797154	1086.152562907836	829.1412374739376	1639.49688932513	45.52883345140127	975.667745542551	1581.851047858524	57.99393460847798	875.0178531876301	1928.361470645393	1082.359235246427	946.1142153232831	1594.986488075908	242.3866215121073	880.1325280528375	1565.882793444767	269.4598684103728	911.1249580897513	1634.84473424719	307.6864327348625	853.3289251718464	1605.333688964956	339.4158505361897	883.5911391756001	1850.310414647706	648.529504995346	822.8283036115488	1799.743708495537	670.5666714821233	870.2470245529172	1880.549873374875	753.3559984733952	808.7202370951596	1835.229060516014	772.9260301360864	858.2660071967017	2094.724267449135	1029.096960259153	1108.056610710098	1921.893351119537	298.5470976353205	1065.303438907935	1795.15687863039	435.1375173126231	1022.554177447587	1824.950871840164	424.0916368363531	1071.853821722672	1840.002009634442	446.2076837655645	1021.88086106008	2026.246181566974	1103.711118509251	1152.980742065608	1901.223567967623	236.5259065563949	1026.297290663672	1877.413209185062	277.5834909148417	1127.215215550888	1928.40849809577	1083.323873954379	1045.760713559695	1949.433874380884	433.2233236497599	1094.788543796073	1926.456207165686	472.5124267430634	1063.232625773204	2010.900666280213	484.6133987689916	1110.304634000355	1988.034048338456	521.4455792547628	1078.798275868885	2229.799210357548	684.6074226798627	1139.793109375566	2172.581267565733	647.4756934884954	1117.188503592472	2164.788096883705	770.291055507271	1165.357923723997	2110.012020424256	733.179968162186	1147.883060839126	
566	3.766666666666667	2089.414476446427	1002.792582169847	869.476570434579	1449.379004271074	191.9544650732795	971.0646025789068	1475.04226305187	180.3759751670121	917.0900371650137	1485.918724126197	219.0958468082297	960.1323045072605	2043.58446570053	1091.337609893467	830.2631463093845	1614.618845054858	48.58315593891186	973.0674451544813	1556.158080020328	65.41926404107643	874.4879479303236	1931.62025603707	1087.803297290873	946.2194280283103	1579.285244528856	254.2706780827794	878.971871087482	1551.566992005811	280.4835031872201	911.8724612281753	1618.910375455929	320.1838103910619	853.1048645789048	1590.676598322357	351.0952548314705	885.4643719914865	1840.849699423634	658.3931880274995	824.2622146702614	1792.036273570293	681.9597613999126	872.8618236677786	1874.612385480717	762.2151877503851	810.2501115006323	1831.287512556298	782.9837573041627	861.0810500464798	2098.655555589689	1036.391321273972	1106.205905568285	1949.122977415346	284.388198710142	1065.750255648236	1812.310836144345	410.5146557062668	1022.363116927301	1842.622894369586	401.8225330881866	1071.527500129308	1856.109642028582	425.1057274972976	1021.543681692021	2030.660006146399	1112.197083676642	1152.850970270411	1933.381575072513	220.9381431918178	1026.830573711574	1906.242045059999	260.3657846263186	1127.534004567988	1932.110657913891	1089.91309783908	1046.056687117651	1966.29383460365	420.7905343992375	1094.48119876218	1940.865779616618	458.022137472601	1062.266866530504	2024.04334252059	476.414766058961	1109.568430172543	1998.895190880218	511.2699538882426	1077.460769234324	2235.845518811213	693.5913663876241	1138.612336413779	2178.385016742714	655.7429018314139	1117.752200844951	2170.56033189426	778.8832726113276	1164.837502483753	2115.770159722483	741.3049755243206	1148.549517998063	
